<?xml version="1.0" encoding="UTF-8" standalone="no"?>
<!DOCTYPE svg PUBLIC "-//W3C//DTD SVG 1.1//EN" "http://www.w3.org/Graphics/SVG/1.1/DTD/svg11.dtd">
<svg width="100%" height="100%" viewBox="0 0 56 56" version="1.1" xmlns="http://www.w3.org/2000/svg" xmlns:xlink="http://www.w3.org/1999/xlink" xml:space="preserve" xmlns:serif="http://www.serif.com/" style="fill-rule:evenodd;clip-rule:evenodd;stroke-linejoin:round;stroke-miterlimit:2;">
    <g id="Background" transform="matrix(0.56,0,0,0.56,-0,0)">
        <path d="M82.143,0C86.879,-0 91.421,1.881 94.77,5.23C98.119,8.579 100,13.121 100,17.857L100,82.143C100,86.879 98.119,91.421 94.77,94.77C91.421,98.119 86.879,100 82.143,100L17.857,100C13.121,100 8.579,98.119 5.23,94.77C1.881,91.421 -0,86.879 0,82.143L0,17.857C-0,13.121 1.881,8.579 5.23,5.23C8.579,1.881 13.121,-0 17.857,-0L82.143,0Z" style="fill:url(#_Linear1);"/>
    </g>
    <g id="Thick" transform="matrix(0.557963,0,0,0.557963,0.101838,-0.022415)">
        <g transform="matrix(0.6,0,0,0.6,19.751042,29)">
            <path d="M37.329,12.298C39.729,7.499 44.634,4.467 50,4.467C55.366,4.467 60.271,7.499 62.671,12.298L96.565,80.086C99.095,85.146 98.372,91.227 94.725,95.553C91.078,99.878 85.207,101.619 79.792,99.981L53.512,92.031C51.483,91.417 49.318,91.412 47.286,92.017L20.092,100.108C14.681,101.718 8.83,99.961 5.2,95.636C1.571,91.311 0.856,85.244 3.381,80.194L37.329,12.298ZM47.764,17.516L13.816,85.412C13.37,86.303 13.497,87.373 14.137,88.137C14.778,88.9 15.81,89.21 16.765,88.926L43.959,80.835C48.179,79.579 52.675,79.589 56.89,80.864L83.17,88.814C84.126,89.103 85.162,88.796 85.805,88.033C86.449,87.269 86.576,86.196 86.13,85.303L52.236,17.516C51.813,16.669 50.947,16.134 50,16.134C49.053,16.134 48.187,16.669 47.764,17.516Z" style="fill:white;"/>
        </g>
        <g transform="matrix(0.179773,-0.179773,0.890412,0.890412,1.407912,13.784026)">
            <path d="M20,19.563C12.402,19.563 6.233,18.318 6.233,16.784C6.233,15.25 12.402,14.004 20,14.004L79,14.004C86.598,14.004 92.767,15.25 92.767,16.784C92.767,18.318 86.598,19.563 79,19.563L20,19.563Z" style="fill:white;"/>
        </g>
        <g transform="matrix(0.179773,0.179773,-0.890412,0.890412,80.79457,-4.013492)">
            <path d="M20,19.563C12.402,19.563 6.233,18.318 6.233,16.784C6.233,15.25 12.402,14.004 20,14.004L79,14.004C86.598,14.004 92.767,15.25 92.767,16.784C92.767,18.318 86.598,19.563 79,19.563L20,19.563Z" style="fill:white;"/>
        </g>
        <g transform="matrix(0.933781,0,0,0.939565,2.340294,3.809025)">
            <path d="M25.498,60.391C22.187,55.541 20.252,49.689 20.252,43.392C20.252,26.651 33.928,13.059 50.773,13.059C67.618,13.059 81.294,26.651 81.294,43.392C81.294,49.689 79.359,55.541 76.048,60.391L71.982,52.308C73.151,49.568 73.798,46.554 73.798,43.392C73.798,30.763 63.481,20.509 50.773,20.509C38.065,20.509 27.748,30.763 27.748,43.392C27.748,46.554 28.395,49.568 29.564,52.308L25.498,60.391ZM40.507,63.877C43.598,65.411 47.085,66.275 50.773,66.275C54.461,66.275 57.948,65.411 61.039,63.877L64.392,70.541C60.291,72.578 55.666,73.725 50.773,73.725C45.88,73.725 41.255,72.578 37.154,70.541L40.507,63.877Z" style="fill:white;"/>
        </g>
    </g>
    <defs>
        <linearGradient id="_Linear1" x1="0" y1="0" x2="1" y2="0" gradientUnits="userSpaceOnUse" gradientTransform="matrix(100,0,0,100,0,50)"><stop offset="0" style="stop-color:rgb(203,52,0);stop-opacity:1"/><stop offset="1" style="stop-color:rgb(255,25,64);stop-opacity:1"/></linearGradient>
    </defs>
</svg>
